<svg width="294" height="40" viewBox="0 0 294 40" fill="none" xmlns="http://www.w3.org/2000/svg">
<path d="M17.655 16.6C18.615 16.6 19.385 16.91 19.965 17.53C20.545 18.15 20.835 19.035 20.835 20.185V25H19.125V20.365C19.125 19.625 18.935 19.055 18.555 18.655C18.175 18.245 17.655 18.04 16.995 18.04C16.315 18.04 15.77 18.26 15.36 18.7C14.95 19.13 14.745 19.765 14.745 20.605V25H13.035V13.9H14.745V18.55C14.965 17.93 15.335 17.45 15.855 17.11C16.375 16.77 16.975 16.6 17.655 16.6ZM26.9898 23.515V25H25.9398C25.0598 25 24.3898 24.79 23.9298 24.37C23.4798 23.94 23.2548 23.23 23.2548 22.24V18.19H22.0698V16.735H23.2548V14.68H24.9798V16.735H26.9748V18.19H24.9798V22.27C24.9798 22.74 25.0648 23.065 25.2348 23.245C25.4148 23.425 25.7248 23.515 26.1648 23.515H26.9898ZM38.9266 16.6C39.9066 16.6 40.6866 16.91 41.2666 17.53C41.8566 18.15 42.1516 19.035 42.1516 20.185V25H40.4416V20.365C40.4416 19.645 40.2616 19.09 39.9016 18.7C39.5416 18.3 39.0466 18.1 38.4166 18.1C37.7466 18.1 37.2116 18.315 36.8116 18.745C36.4216 19.165 36.2266 19.785 36.2266 20.605V25H34.5166V20.365C34.5166 19.645 34.3366 19.09 33.9766 18.7C33.6166 18.3 33.1216 18.1 32.4916 18.1C31.8216 18.1 31.2866 18.315 30.8866 18.745C30.4966 19.165 30.3016 19.785 30.3016 20.605V25H28.5916V16.735H30.3016V18.46C30.5116 17.86 30.8616 17.4 31.3516 17.08C31.8416 16.76 32.4166 16.6 33.0766 16.6C33.7666 16.6 34.3616 16.77 34.8616 17.11C35.3716 17.45 35.7416 17.94 35.9716 18.58C36.2116 17.96 36.5966 17.475 37.1266 17.125C37.6566 16.775 38.2566 16.6 38.9266 16.6ZM45.8583 13.9V25H44.1483V13.9H45.8583Z" fill="#3C3A39"/>
<rect x="0.5" y="0.5" width="58" height="39" stroke="#979493"/>
<path d="M85.555 19.54C86.195 19.67 86.71 19.975 87.1 20.455C87.5 20.935 87.7 21.495 87.7 22.135C87.7 23.015 87.405 23.715 86.815 24.235C86.225 24.745 85.37 25 84.25 25H80.035V14.41H84.175C85.235 14.41 86.045 14.65 86.605 15.13C87.175 15.6 87.46 16.25 87.46 17.08C87.46 17.75 87.285 18.295 86.935 18.715C86.585 19.125 86.125 19.4 85.555 19.54ZM81.745 18.97H83.86C84.46 18.97 84.915 18.83 85.225 18.55C85.545 18.27 85.705 17.88 85.705 17.38C85.705 16.89 85.545 16.505 85.225 16.225C84.915 15.945 84.44 15.805 83.8 15.805H81.745V18.97ZM83.905 23.59C84.555 23.59 85.055 23.445 85.405 23.155C85.765 22.855 85.945 22.44 85.945 21.91C85.945 21.38 85.765 20.965 85.405 20.665C85.045 20.365 84.54 20.215 83.89 20.215H81.745V23.59H83.905ZM93.0875 16.63C93.8875 16.63 94.6075 16.8 95.2475 17.14C95.8875 17.48 96.3875 17.97 96.7475 18.61C97.1075 19.25 97.2875 20 97.2875 20.86C97.2875 21.73 97.1075 22.485 96.7475 23.125C96.3875 23.765 95.8875 24.255 95.2475 24.595C94.6075 24.935 93.8875 25.105 93.0875 25.105C92.2875 25.105 91.5675 24.935 90.9275 24.595C90.2975 24.255 89.7975 23.765 89.4275 23.125C89.0675 22.475 88.8875 21.72 88.8875 20.86C88.8875 20 89.0675 19.25 89.4275 18.61C89.7975 17.97 90.2975 17.48 90.9275 17.14C91.5675 16.8 92.2875 16.63 93.0875 16.63ZM93.0875 18.115C92.6475 18.115 92.2425 18.215 91.8725 18.415C91.5025 18.615 91.2025 18.925 90.9725 19.345C90.7525 19.755 90.6425 20.26 90.6425 20.86C90.6425 21.47 90.7525 21.98 90.9725 22.39C91.2025 22.8 91.5025 23.105 91.8725 23.305C92.2425 23.505 92.6475 23.605 93.0875 23.605C93.5275 23.605 93.9325 23.505 94.3025 23.305C94.6725 23.105 94.9675 22.8 95.1875 22.39C95.4175 21.98 95.5325 21.47 95.5325 20.86C95.5325 20.26 95.4175 19.755 95.1875 19.345C94.9675 18.925 94.6725 18.615 94.3025 18.415C93.9325 18.215 93.5275 18.115 93.0875 18.115ZM102.711 16.63C103.511 16.63 104.231 16.8 104.871 17.14C105.511 17.48 106.011 17.97 106.371 18.61C106.731 19.25 106.911 20 106.911 20.86C106.911 21.73 106.731 22.485 106.371 23.125C106.011 23.765 105.511 24.255 104.871 24.595C104.231 24.935 103.511 25.105 102.711 25.105C101.911 25.105 101.191 24.935 100.551 24.595C99.9215 24.255 99.4215 23.765 99.0515 23.125C98.6915 22.475 98.5115 21.72 98.5115 20.86C98.5115 20 98.6915 19.25 99.0515 18.61C99.4215 17.97 99.9215 17.48 100.551 17.14C101.191 16.8 101.911 16.63 102.711 16.63ZM102.711 18.115C102.271 18.115 101.866 18.215 101.496 18.415C101.126 18.615 100.826 18.925 100.596 19.345C100.376 19.755 100.266 20.26 100.266 20.86C100.266 21.47 100.376 21.98 100.596 22.39C100.826 22.8 101.126 23.105 101.496 23.305C101.866 23.505 102.271 23.605 102.711 23.605C103.151 23.605 103.556 23.505 103.926 23.305C104.296 23.105 104.591 22.8 104.811 22.39C105.041 21.98 105.156 21.47 105.156 20.86C105.156 20.26 105.041 19.755 104.811 19.345C104.591 18.925 104.296 18.615 103.926 18.415C103.556 18.215 103.151 18.115 102.711 18.115ZM112.711 23.515V25H111.661C110.781 25 110.111 24.79 109.651 24.37C109.201 23.94 108.976 23.23 108.976 22.24V18.19H107.791V16.735H108.976V14.68H110.701V16.735H112.696V18.19H110.701V22.27C110.701 22.74 110.786 23.065 110.956 23.245C111.136 23.425 111.446 23.515 111.886 23.515H112.711ZM117.027 16.63C117.997 16.63 118.772 16.88 119.352 17.38C119.942 17.87 120.302 18.53 120.432 19.36H118.812C118.742 18.91 118.547 18.55 118.227 18.28C117.917 18 117.502 17.86 116.982 17.86C116.552 17.86 116.217 17.965 115.977 18.175C115.747 18.375 115.632 18.65 115.632 19C115.632 19.26 115.717 19.47 115.887 19.63C116.057 19.79 116.267 19.915 116.517 20.005C116.777 20.095 117.142 20.195 117.612 20.305C118.232 20.445 118.732 20.59 119.112 20.74C119.502 20.89 119.832 21.13 120.102 21.46C120.382 21.78 120.522 22.22 120.522 22.78C120.522 23.47 120.257 24.03 119.727 24.46C119.207 24.89 118.502 25.105 117.612 25.105C116.582 25.105 115.747 24.865 115.107 24.385C114.477 23.905 114.097 23.235 113.967 22.375H115.632C115.682 22.825 115.882 23.19 116.232 23.47C116.582 23.75 117.042 23.89 117.612 23.89C118.022 23.89 118.342 23.785 118.572 23.575C118.812 23.355 118.932 23.08 118.932 22.75C118.932 22.46 118.842 22.23 118.662 22.06C118.482 21.89 118.257 21.76 117.987 21.67C117.717 21.57 117.347 21.47 116.877 21.37C116.277 21.23 115.787 21.09 115.407 20.95C115.037 20.81 114.717 20.585 114.447 20.275C114.187 19.955 114.057 19.525 114.057 18.985C114.057 18.285 114.317 17.72 114.837 17.29C115.367 16.85 116.097 16.63 117.027 16.63ZM126.392 23.515V25H125.342C124.462 25 123.792 24.79 123.332 24.37C122.882 23.94 122.657 23.23 122.657 22.24V18.19H121.472V16.735H122.657V14.68H124.382V16.735H126.377V18.19H124.382V22.27C124.382 22.74 124.467 23.065 124.637 23.245C124.817 23.425 125.127 23.515 125.567 23.515H126.392ZM129.704 18.355C129.984 17.815 130.384 17.39 130.904 17.08C131.424 16.76 132.024 16.6 132.704 16.6V18.46H132.194C131.444 18.46 130.839 18.645 130.379 19.015C129.929 19.375 129.704 19.975 129.704 20.815V25H127.994V16.735H129.704V18.355ZM137.3 16.63C138.05 16.63 138.69 16.815 139.22 17.185C139.75 17.555 140.125 18.045 140.345 18.655V16.735H142.055V25H140.345V23.08C140.125 23.69 139.75 24.18 139.22 24.55C138.69 24.92 138.05 25.105 137.3 25.105C136.58 25.105 135.935 24.935 135.365 24.595C134.805 24.255 134.365 23.765 134.045 23.125C133.725 22.485 133.565 21.73 133.565 20.86C133.565 20 133.725 19.25 134.045 18.61C134.365 17.97 134.805 17.48 135.365 17.14C135.935 16.8 136.58 16.63 137.3 16.63ZM137.825 18.13C137.065 18.13 136.455 18.375 135.995 18.865C135.545 19.345 135.32 20.01 135.32 20.86C135.32 21.71 135.545 22.38 135.995 22.87C136.455 23.35 137.065 23.59 137.825 23.59C138.305 23.59 138.735 23.48 139.115 23.26C139.495 23.03 139.795 22.71 140.015 22.3C140.235 21.89 140.345 21.41 140.345 20.86C140.345 20.32 140.235 19.845 140.015 19.435C139.795 19.015 139.495 18.695 139.115 18.475C138.735 18.245 138.305 18.13 137.825 18.13ZM148.847 16.63C149.567 16.63 150.207 16.8 150.767 17.14C151.337 17.48 151.782 17.97 152.102 18.61C152.422 19.25 152.582 20 152.582 20.86C152.582 21.73 152.422 22.485 152.102 23.125C151.782 23.765 151.337 24.255 150.767 24.595C150.207 24.935 149.567 25.105 148.847 25.105C148.097 25.105 147.457 24.92 146.927 24.55C146.397 24.18 146.027 23.69 145.817 23.08V28.93H144.107V16.735H145.817V18.655C146.027 18.045 146.397 17.555 146.927 17.185C147.457 16.815 148.097 16.63 148.847 16.63ZM148.322 18.13C147.842 18.13 147.412 18.245 147.032 18.475C146.652 18.695 146.352 19.015 146.132 19.435C145.912 19.845 145.802 20.32 145.802 20.86C145.802 21.41 145.912 21.89 146.132 22.3C146.352 22.71 146.652 23.03 147.032 23.26C147.412 23.48 147.842 23.59 148.322 23.59C149.082 23.59 149.692 23.35 150.152 22.87C150.612 22.38 150.842 21.71 150.842 20.86C150.842 20.02 150.612 19.355 150.152 18.865C149.692 18.375 149.082 18.13 148.322 18.13Z" fill="#3C3A39"/>
<rect x="67.5" y="0.5" width="98" height="39" stroke="#979493"/>
<path d="M192.6 25L189.96 20.77H188.745V25H187.035V14.41H190.77C191.98 14.41 192.895 14.705 193.515 15.295C194.145 15.885 194.46 16.665 194.46 17.635C194.46 18.465 194.225 19.145 193.755 19.675C193.295 20.205 192.625 20.545 191.745 20.695L194.52 25H192.6ZM188.745 19.555H190.635C192.015 19.555 192.705 18.945 192.705 17.725C192.705 17.145 192.535 16.695 192.195 16.375C191.865 16.045 191.345 15.88 190.635 15.88H188.745V19.555ZM203.62 16.735V25H201.895V23.2C201.685 23.81 201.32 24.285 200.8 24.625C200.28 24.955 199.675 25.12 198.985 25.12C198.025 25.12 197.255 24.81 196.675 24.19C196.095 23.57 195.805 22.685 195.805 21.535V16.735H197.515V21.355C197.515 22.105 197.705 22.685 198.085 23.095C198.465 23.495 198.985 23.695 199.645 23.695C200.325 23.695 200.87 23.475 201.28 23.035C201.69 22.595 201.895 21.955 201.895 21.115V16.735H203.62ZM210.408 16.63C211.128 16.63 211.768 16.8 212.328 17.14C212.898 17.48 213.343 17.97 213.663 18.61C213.983 19.25 214.143 20 214.143 20.86C214.143 21.73 213.983 22.485 213.663 23.125C213.343 23.765 212.898 24.255 212.328 24.595C211.768 24.935 211.128 25.105 210.408 25.105C209.658 25.105 209.018 24.92 208.488 24.55C207.958 24.18 207.588 23.69 207.378 23.08V25H205.668V13.9H207.378V18.655C207.588 18.045 207.958 17.555 208.488 17.185C209.018 16.815 209.658 16.63 210.408 16.63ZM209.883 18.13C209.403 18.13 208.973 18.245 208.593 18.475C208.213 18.695 207.913 19.015 207.693 19.435C207.473 19.845 207.363 20.32 207.363 20.86C207.363 21.41 207.473 21.89 207.693 22.3C207.913 22.71 208.213 23.03 208.593 23.26C208.973 23.48 209.403 23.59 209.883 23.59C210.643 23.59 211.253 23.35 211.713 22.87C212.173 22.38 212.403 21.71 212.403 20.86C212.403 20.02 212.173 19.355 211.713 18.865C211.253 18.375 210.643 18.13 209.883 18.13ZM216.765 16.735L219.24 22.81L221.535 16.735H223.44L218.445 28.93H216.54L218.325 24.805L214.845 16.735H216.765ZM231.86 16.63C232.66 16.63 233.38 16.8 234.02 17.14C234.66 17.48 235.16 17.97 235.52 18.61C235.88 19.25 236.06 20 236.06 20.86C236.06 21.73 235.88 22.485 235.52 23.125C235.16 23.765 234.66 24.255 234.02 24.595C233.38 24.935 232.66 25.105 231.86 25.105C231.06 25.105 230.34 24.935 229.7 24.595C229.07 24.255 228.57 23.765 228.2 23.125C227.84 22.475 227.66 21.72 227.66 20.86C227.66 20 227.84 19.25 228.2 18.61C228.57 17.97 229.07 17.48 229.7 17.14C230.34 16.8 231.06 16.63 231.86 16.63ZM231.86 18.115C231.42 18.115 231.015 18.215 230.645 18.415C230.275 18.615 229.975 18.925 229.745 19.345C229.525 19.755 229.415 20.26 229.415 20.86C229.415 21.47 229.525 21.98 229.745 22.39C229.975 22.8 230.275 23.105 230.645 23.305C231.015 23.505 231.42 23.605 231.86 23.605C232.3 23.605 232.705 23.505 233.075 23.305C233.445 23.105 233.74 22.8 233.96 22.39C234.19 21.98 234.305 21.47 234.305 20.86C234.305 20.26 234.19 19.755 233.96 19.345C233.74 18.925 233.445 18.615 233.075 18.415C232.705 18.215 232.3 18.115 231.86 18.115ZM242.324 16.6C243.284 16.6 244.054 16.91 244.634 17.53C245.214 18.15 245.504 19.035 245.504 20.185V25H243.794V20.365C243.794 19.625 243.604 19.055 243.224 18.655C242.844 18.245 242.324 18.04 241.664 18.04C240.984 18.04 240.439 18.26 240.029 18.7C239.619 19.13 239.414 19.765 239.414 20.605V25H237.704V16.735H239.414V18.55C239.634 17.93 240.004 17.45 240.524 17.11C241.044 16.77 241.644 16.6 242.324 16.6ZM252.729 18.355C253.009 17.815 253.409 17.39 253.929 17.08C254.449 16.76 255.049 16.6 255.729 16.6V18.46H255.219C254.469 18.46 253.864 18.645 253.404 19.015C252.954 19.375 252.729 19.975 252.729 20.815V25H251.019V16.735H252.729V18.355ZM260.326 16.63C261.076 16.63 261.716 16.815 262.246 17.185C262.776 17.555 263.151 18.045 263.371 18.655V16.735H265.081V25H263.371V23.08C263.151 23.69 262.776 24.18 262.246 24.55C261.716 24.92 261.076 25.105 260.326 25.105C259.606 25.105 258.961 24.935 258.391 24.595C257.831 24.255 257.391 23.765 257.071 23.125C256.751 22.485 256.591 21.73 256.591 20.86C256.591 20 256.751 19.25 257.071 18.61C257.391 17.97 257.831 17.48 258.391 17.14C258.961 16.8 259.606 16.63 260.326 16.63ZM260.851 18.13C260.091 18.13 259.481 18.375 259.021 18.865C258.571 19.345 258.346 20.01 258.346 20.86C258.346 21.71 258.571 22.38 259.021 22.87C259.481 23.35 260.091 23.59 260.851 23.59C261.331 23.59 261.761 23.48 262.141 23.26C262.521 23.03 262.821 22.71 263.041 22.3C263.261 21.89 263.371 21.41 263.371 20.86C263.371 20.32 263.261 19.845 263.041 19.435C262.821 19.015 262.521 18.695 262.141 18.475C261.761 18.245 261.331 18.13 260.851 18.13ZM266.893 14.335C266.893 14.045 266.993 13.805 267.193 13.615C267.393 13.425 267.658 13.33 267.988 13.33C268.318 13.33 268.583 13.425 268.783 13.615C268.993 13.805 269.098 14.045 269.098 14.335C269.098 14.625 268.993 14.86 268.783 15.04C268.583 15.22 268.318 15.31 267.988 15.31C267.658 15.31 267.393 15.22 267.193 15.04C266.993 14.86 266.893 14.625 266.893 14.335ZM268.843 16.735V25H267.133V16.735H268.843ZM272.622 13.9V25H270.912V13.9H272.622ZM277.406 16.63C278.376 16.63 279.151 16.88 279.731 17.38C280.321 17.87 280.681 18.53 280.811 19.36H279.191C279.121 18.91 278.926 18.55 278.606 18.28C278.296 18 277.881 17.86 277.361 17.86C276.931 17.86 276.596 17.965 276.356 18.175C276.126 18.375 276.011 18.65 276.011 19C276.011 19.26 276.096 19.47 276.266 19.63C276.436 19.79 276.646 19.915 276.896 20.005C277.156 20.095 277.521 20.195 277.991 20.305C278.611 20.445 279.111 20.59 279.491 20.74C279.881 20.89 280.211 21.13 280.481 21.46C280.761 21.78 280.901 22.22 280.901 22.78C280.901 23.47 280.636 24.03 280.106 24.46C279.586 24.89 278.881 25.105 277.991 25.105C276.961 25.105 276.126 24.865 275.486 24.385C274.856 23.905 274.476 23.235 274.346 22.375H276.011C276.061 22.825 276.261 23.19 276.611 23.47C276.961 23.75 277.421 23.89 277.991 23.89C278.401 23.89 278.721 23.785 278.951 23.575C279.191 23.355 279.311 23.08 279.311 22.75C279.311 22.46 279.221 22.23 279.041 22.06C278.861 21.89 278.636 21.76 278.366 21.67C278.096 21.57 277.726 21.47 277.256 21.37C276.656 21.23 276.166 21.09 275.786 20.95C275.416 20.81 275.096 20.585 274.826 20.275C274.566 19.955 274.436 19.525 274.436 18.985C274.436 18.285 274.696 17.72 275.216 17.29C275.746 16.85 276.476 16.63 277.406 16.63Z" fill="#3C3A39"/>
<rect x="174.5" y="0.5" width="119" height="39" stroke="#979493"/>
</svg>
